<?xml version="1.0" encoding="UTF-8" standalone="no"?>
<svg xmlns:dc="http://purl.org/dc/elements/1.1/" xmlns:cc="http://creativecommons.org/ns#" xmlns:rdf="http://www.w3.org/1999/02/22-rdf-syntax-ns#" xmlns:svg="http://www.w3.org/2000/svg" xmlns="http://www.w3.org/2000/svg" xmlns:sodipodi="http://sodipodi.sourceforge.net/DTD/sodipodi-0.dtd" xmlns:inkscape="http://www.inkscape.org/namespaces/inkscape" height="42" id="svg2" version="1.1" viewBox="0 0 42 42" width="42">
  <title id="title3794">Bell Laboratories logo (1969-1983)</title>
  <g inkscape:label="Layer 1" inkscape:groupmode="layer" id="layer1" transform="translate(-420.83891,-427.02716)">
    <g id="g4814" transform="translate(0.1302378,1.5290624e-6)">
      <g transform="matrix(0.06131847,0,0,0.06131847,419.30011,416.25461)" id="g3969" style="fill-opacity:1">
        <path fill="currentColor" style="fill-opacity:1;stroke:none" d="m 333.09375,306.90625 0,40.65625 c 0,0 -22.99367,-0.10623 -34.46875,0.46875 -3.3309,0.1669 -6.65039,0.54156 -9.96875,0.875 -5.06346,0.5088 -10.13179,0.91107 -15.15625,1.71875 -3.49658,0.56207 -7.00443,1.20281 -10.40625,2.1875 -3.55643,1.02945 -7.04141,2.33039 -10.40625,3.875 -2.99586,1.37523 -5.9208,2.94175 -8.65625,4.78125 -2.47009,1.66106 -4.91971,3.43662 -6.9375,5.625 -2.25262,2.44307 -4.0439,5.31303 -5.65625,8.21875 -1.57321,2.83519 -2.87698,5.82125 -3.875,8.90625 -1.68129,5.19703 -2.66665,10.62824 -3.46875,16.03125 -1.04164,7.01658 -1.17789,14.11713 -1.75,21.1875 -1.16742,14.42757 -1.94505,28.88694 -3.46875,43.28125 -1.74642,16.49831 -3.44743,33.03651 -6.5,49.34375 -0.32496,1.736 -0.74186,3.46477 -1.25,5.15625 -0.87339,2.90732 -1.73303,5.86467 -3.0625,8.59375 -1.72988,3.55103 -3.8471,6.91388 -6.3125,10 -2.1427,2.68218 -4.58546,5.19594 -7.3125,7.28125 -2.3233,1.77657 -4.93619,3.15382 -7.59375,4.375 -3.22599,1.48238 -6.65881,2.45295 -10.03125,3.5625 -2.46511,0.81104 -4.92721,1.72546 -7.46875,2.25 -1.40916,0.29083 -4.28125,0.5 -4.28125,0.5 -1.10412,0 -2.15686,0.43811 -2.9375,1.21875 -0.78065,0.78065 -1.21875,1.83337 -1.21875,2.9375 l 0,86.0625 172.1875,0 0,45.34375 75.4375,0 0,-45.34375 172.1875,0 0,-86.0625 c 0,-2.2998 -2.38768,-3.30484 -4.15625,-4.15625 -1.29644,-0.62413 -2.87209,-0.20917 -4.28125,-0.5 -2.54154,-0.52454 -5.00364,-1.43896 -7.46875,-2.25 -3.37244,-1.10955 -6.80523,-2.08018 -10.03125,-3.5625 -2.65775,-1.2212 -5.30157,-2.59831 -7.625,-4.375 -2.72691,-2.08523 -5.13876,-4.59909 -7.28125,-7.28125 -2.4652,-3.08614 -4.58252,-6.44914 -6.3125,-10 -1.32964,-2.72915 -2.18888,-5.68635 -3.0625,-8.59375 -0.50825,-1.69144 -0.9563,-3.42025 -1.28125,-5.15625 -3.05248,-16.30723 -4.7538,-32.84544 -6.5,-49.34375 -1.52351,-14.39431 -2.26977,-28.85372 -3.4375,-43.28125 -0.57226,-7.07039 -0.70828,-14.1709 -1.75,-21.1875 -0.80215,-5.40296 -1.78757,-10.83423 -3.46875,-16.03125 -0.99797,-3.08502 -2.33297,-6.0711 -3.90625,-8.90625 -1.61247,-2.90578 -3.37229,-5.77561 -5.625,-8.21875 -2.01769,-2.18825 -4.46755,-3.96401 -6.9375,-5.625 -2.73558,-1.83962 -5.66021,-3.40599 -8.65625,-4.78125 -3.36486,-1.54456 -6.84983,-2.84552 -10.40625,-3.875 -3.40142,-0.98462 -6.91007,-1.62547 -10.40625,-2.1875 -5.02486,-0.80778 -10.09238,-1.20992 -15.15625,-1.71875 -3.31816,-0.33342 -6.63806,-0.7081 -9.96875,-0.875 -11.47508,-0.57501 -34.46875,-0.46875 -34.46875,-0.46875 l 0,-40.65625 -75.4375,0 z m 37.71875,96.65625 c 7.38985,0 14.76952,0.0666 22.15625,0.28125 9.60703,0.27916 19.25493,0.29966 28.8125,1.3125 3.02484,0.32055 6.00794,0.95227 9,1.5 2.50813,0.45914 5.11513,0.59784 7.5,1.5 2.58384,0.97743 4.95094,2.49245 7.15625,4.15625 1.72445,1.30101 3.29001,2.85277 4.6875,4.5 1.39463,1.64386 2.72367,3.40015 3.65625,5.34375 1.00262,2.08957 1.30836,4.44419 2,6.65625 0.53631,1.71528 1.28879,3.3658 1.65625,5.125 1.04888,5.02145 1.07888,10.19999 1.5,15.3125 0.75243,9.13477 1.28633,18.28876 1.84375,27.4375 0.30759,5.04833 0.48,10.11166 0.84375,15.15625 0.4047,5.61255 0.89303,11.21821 1.5,16.8125 0.61429,5.66177 1.26351,11.31291 2.15625,16.9375 0.51356,3.2356 1.10836,6.46376 1.84375,9.65625 0.76157,3.30611 1.41102,6.65659 2.65625,9.8125 1.22123,3.09509 2.81857,6.06996 4.65625,8.84375 1.70013,2.56617 3.67056,4.97613 5.84375,7.15625 1.42074,1.42527 2.981,2.74584 4.6875,3.8125 1.91803,1.19888 4.07748,1.95221 6.15625,2.84375 1.92481,0.82551 3.86503,1.62618 5.84375,2.3125 1.47779,0.51257 2.952,1.11947 4.5,1.34375 1.0007,0.14499 3.03125,0 3.03125,0 l 0,15.78125 -267.375,0 0,-15.78125 c 0,0 2.03094,0.14489 3.03125,0 1.54838,-0.22428 3.02184,-0.83108 4.5,-1.34375 1.97855,-0.68622 3.91913,-1.48703 5.84375,-2.3125 2.07876,-0.89158 4.23826,-1.64481 6.15625,-2.84375 1.70633,-1.06663 3.26688,-2.38733 4.6875,-3.8125 2.17327,-2.18023 4.11224,-4.59001 5.8125,-7.15625 1.83775,-2.77375 3.46627,-5.74866 4.6875,-8.84375 1.24523,-3.15591 1.89468,-6.50638 2.65625,-9.8125 0.7354,-3.19249 1.33019,-6.42065 1.84375,-9.65625 0.89274,-5.62459 1.54196,-11.27573 2.15625,-16.9375 0.60697,-5.59429 1.0953,-11.19995 1.5,-16.8125 0.36375,-5.04459 0.53617,-10.10792 0.84375,-15.15625 0.55741,-9.14874 1.06007,-18.30273 1.8125,-27.4375 0.42112,-5.11251 0.45085,-10.29111 1.5,-15.3125 0.36757,-1.75924 1.15115,-3.40967 1.6875,-5.125 0.69165,-2.21199 0.99749,-4.56669 2,-6.65625 0.93249,-1.94363 2.26167,-3.69985 3.65625,-5.34375 1.39734,-1.64716 2.93191,-3.19909 4.65625,-4.5 2.2056,-1.664 4.6033,-3.17877 7.1875,-4.15625 2.38471,-0.90202 4.99208,-1.04086 7.5,-1.5 2.99185,-0.54773 5.97536,-1.17946 9,-1.5 9.55797,-1.01292 19.20506,-1.03333 28.8125,-1.3125 7.38632,-0.21467 14.76681,-0.28125 22.15625,-0.28125 z" id="path3924" inkscape:connector-curvature="0"/>
        <path fill="currentColor" style="fill-opacity:1;stroke:none" d="m 370.8125,184.5 c -184.2749,0 -333.65625,149.38135 -333.65625,333.65625 0,184.2749 149.38135,333.65625 333.65625,333.65625 184.27492,0 333.65625,-149.38135 333.65625,-333.65625 C 704.46875,333.88135 555.0874,184.5 370.8125,184.5 z m 0,59.0625 c 151.6626,0 274.59375,122.93115 274.59375,274.59375 0,151.6626 -122.93115,274.625 -274.59375,274.625 -151.6626,0 -274.625,-122.9624 -274.625,-274.625 0,-151.6626 122.9624,-274.59375 274.625,-274.59375 z" id="path3918" inkscape:connector-curvature="0"/>
      </g>
    </g>
  </g>
</svg>
